<?xml version="1.0" encoding="UTF-8" standalone="no"?>
<!-- Created with Inkscape (http://www.inkscape.org/) -->

<svg
   xmlns:dc="http://purl.org/dc/elements/1.1/"
   xmlns:cc="http://creativecommons.org/ns#"
   xmlns:rdf="http://www.w3.org/1999/02/22-rdf-syntax-ns#"
   xmlns:svg="http://www.w3.org/2000/svg"
   xmlns="http://www.w3.org/2000/svg"
   xmlns:sodipodi="http://sodipodi.sourceforge.net/DTD/sodipodi-0.dtd"
   xmlns:inkscape="http://www.inkscape.org/namespaces/inkscape"
   width="16"
   height="16"
   viewBox="0 0 16 16"
   id="svg2"
   version="1.1"
   inkscape:version="0.91 r13725"
   sodipodi:docname="spiderIcon.svg">
  <defs
     id="defs4" />
  <sodipodi:namedview
     id="base"
     pagecolor="#ffffff"
     bordercolor="#666666"
     borderopacity="1.0"
     inkscape:pageopacity="0.0"
     inkscape:pageshadow="2"
     inkscape:zoom="50.75"
     inkscape:cx="8"
     inkscape:cy="8"
     inkscape:document-units="px"
     inkscape:current-layer="layer1"
     showgrid="true"
     units="px"
     inkscape:snap-global="false"
     inkscape:window-width="1920"
     inkscape:window-height="990"
     inkscape:window-x="-2"
     inkscape:window-y="32"
     inkscape:window-maximized="1">
    <inkscape:grid
       type="xygrid"
       id="grid4136"
       empspacing="4" />
  </sodipodi:namedview>
  <metadata
     id="metadata7">
    <rdf:RDF>
      <cc:Work
         rdf:about="">
        <dc:format>image/svg+xml</dc:format>
        <dc:type
           rdf:resource="http://purl.org/dc/dcmitype/StillImage" />
        <dc:title></dc:title>
      </cc:Work>
    </rdf:RDF>
  </metadata>
  <g
     inkscape:label="Layer 1"
     inkscape:groupmode="layer"
     id="layer1"
     transform="translate(0,-1036.3622)">
    <path
       style="color:#000000;font-style:normal;font-variant:normal;font-weight:normal;font-stretch:normal;font-size:medium;line-height:normal;font-family:sans-serif;text-indent:0;text-align:start;text-decoration:none;text-decoration-line:none;text-decoration-style:solid;text-decoration-color:#000000;letter-spacing:normal;word-spacing:normal;text-transform:none;direction:ltr;block-progression:tb;writing-mode:lr-tb;baseline-shift:baseline;text-anchor:start;white-space:normal;clip-rule:nonzero;display:inline;overflow:visible;visibility:visible;opacity:0.5;isolation:auto;mix-blend-mode:normal;color-interpolation:sRGB;color-interpolation-filters:linearRGB;solid-color:#000000;solid-opacity:1;fill:#000000;fill-opacity:1;fill-rule:evenodd;stroke:none;stroke-width:2;stroke-linecap:round;stroke-linejoin:miter;stroke-miterlimit:4;stroke-dasharray:none;stroke-dashoffset:0;stroke-opacity:1;color-rendering:auto;image-rendering:auto;shape-rendering:auto;text-rendering:auto;enable-background:accumulate"
       d="M 2.5292969 -0.005859375 C 1.4361524 -0.028859375 0.66187592 1.2148469 1.1660156 2.1855469 L 1.6015625 3.0566406 C 1.5374345 3.0466406 1.4865731 2.981375 1.4238281 2.984375 C 1.0167522 3.005375 0.67953852 3.1837406 0.43164062 3.4316406 C 0.18374275 3.6795406 0.00497071 4.0167281 -0.015625 4.4238281 C -0.03622071 4.8308281 0.15035899 5.2841719 0.45507812 5.5761719 L 2.6894531 7.8125 L 3.2558594 8.0019531 L 2.9257812 8.1113281 L 0.86914062 9.1386719 C 0.47911968 9.3127719 0.14786525 9.6844312 0.033203125 10.082031 C -0.081458985 10.479531 -0.018974425 10.861034 0.13867188 11.177734 C 0.29631817 11.494334 0.56291554 11.773775 0.94921875 11.921875 C 1.3222927 12.064975 1.7930685 12.015172 2.1621094 11.826172 L 1.1601562 13.826172 C 0.9713537 14.199072 0.94486792 14.678434 1.09375 15.052734 C 1.2426319 15.426934 1.516822 15.690103 1.828125 15.845703 C 2.139428 16.001403 2.5136042 16.062531 2.9023438 15.957031 C 3.2910831 15.851531 3.658767 15.542769 3.84375 15.167969 L 4.4804688 13.892578 A 4 4 0 0 0 8 16 A 4 4 0 0 0 11.521484 13.894531 L 12.15625 15.167969 C 12.34127 15.542669 12.708951 15.851531 13.097656 15.957031 C 13.486361 16.062431 13.860592 16.001103 14.171875 15.845703 C 14.483158 15.690103 14.757363 15.426934 14.90625 15.052734 C 15.055137 14.678434 15.028581 14.199072 14.839844 13.826172 L 13.837891 11.826172 C 14.206932 12.014472 14.677706 12.064675 15.050781 11.921875 C 15.437086 11.773775 15.703682 11.494334 15.861328 11.177734 C 16.018975 10.861034 16.08146 10.479531 15.966797 10.082031 C 15.852134 9.6844312 15.520882 9.3127719 15.130859 9.1386719 L 13.074219 8.1113281 L 12.744141 8.0019531 L 13.310547 7.8125 L 15.544922 5.5761719 C 15.849628 5.2841719 16.036225 4.8308281 16.015625 4.4238281 C 15.995025 4.0167281 15.816255 3.6795406 15.568359 3.4316406 C 15.320464 3.1837406 14.98324 3.004975 14.576172 2.984375 C 14.513432 2.984375 14.462565 3.0506406 14.398438 3.0566406 L 14.839844 2.1757812 C 15.028577 1.8028812 15.055133 1.3235187 14.90625 0.94921875 C 14.757363 0.57501875 14.483158 0.31185 14.171875 0.15625 C 13.860592 0.00065 13.486361 -0.060478125 13.097656 0.044921875 C 12.708951 0.15042187 12.34127 0.45928437 12.15625 0.83398438 L 11.267578 2.6132812 L 10.585938 3.2929688 C 10.584418 3.2335193 10.599191 3.1798879 10.59375 3.1191406 C 10.54852 2.6140406 10.33391 2.0419 9.8652344 1.625 C 9.396559 1.2081 8.7358627 1 8 1 C 7.2641372 1 6.6053942 1.2081 6.1367188 1.625 C 5.6680433 2.0419 5.4514778 2.6140406 5.40625 3.1191406 C 5.4008094 3.1798879 5.415582 3.2335193 5.4140625 3.2929688 L 4.7324219 2.6132812 L 3.8476562 0.84375 C 3.6041866 0.33745 3.0927637 0.007340625 2.53125 -0.005859375 L 2.5292969 -0.005859375 z "
       transform="translate(0,1036.3622)"
       id="path4323" />
    <path
       id="path4177"
       style="fill:none;fill-rule:evenodd;stroke:#00ff00;stroke-width:1px;stroke-linecap:round;stroke-linejoin:miter;stroke-opacity:1"
       d="m 14.5,1046.8622 -2,-1 -4.5,-1.5 m 6.5,-3.5 -2,2 -4.5,1.5 m 5.5,6.5 -1,-2 -4.5,-4.5 m 5.5,-6.5 -1,2 -4.5,4.5 m -6.5,2.5 2,-1 4.5,-1.5 m -6.5,-3.5 2,2 4.5,1.5 m -5.5,6.5 1,-2 4.5,-4.5 m -5.5,-6.5 1,2 4.5,4.5" />
    <circle
       style="opacity:1;fill:#00ff00;fill-opacity:1;stroke:none;stroke-width:2;stroke-linecap:butt;stroke-linejoin:round;stroke-miterlimit:4;stroke-dasharray:none;stroke-dashoffset:0;stroke-opacity:1"
       id="path4147"
       cx="8"
       cy="1044.3622"
       r="2" />
    <g
       id="g4338">
      <path
         sodipodi:nodetypes="cccc"
         inkscape:connector-curvature="0"
         id="path4153"
         d="m 8,1038.3622 c -1.2288301,0.739 -0.8053557,1.5281 -0.4408867,1.803 l -0.5726601,0.8152 C 6.322151,1040.7104 5.7536947,1038.4016 8,1038.3622 Z"
         style="fill:#00ff00;fill-opacity:1;fill-rule:evenodd;stroke:none;stroke-width:1px;stroke-linecap:butt;stroke-linejoin:miter;stroke-opacity:1" />
      <circle
         r="1.5"
         style="opacity:1;fill:#00ff00;fill-opacity:1;stroke:none;stroke-width:2;stroke-linecap:butt;stroke-linejoin:round;stroke-miterlimit:4;stroke-dasharray:none;stroke-dashoffset:0;stroke-opacity:1"
         id="circle4149"
         cx="8"
         cy="1041.3622" />
      <circle
         style="opacity:1;fill:#00ff00;fill-opacity:1;stroke:none;stroke-width:2;stroke-linecap:butt;stroke-linejoin:round;stroke-miterlimit:4;stroke-dasharray:none;stroke-dashoffset:0;stroke-opacity:1"
         id="circle4151"
         cx="8"
         cy="1048.3622"
         r="3" />
      <path
         style="fill:#00ff00;fill-opacity:1;fill-rule:evenodd;stroke:none;stroke-width:1px;stroke-linecap:butt;stroke-linejoin:miter;stroke-opacity:1"
         d="m 8,1038.3622 c 1.2288301,0.739 0.8053557,1.5281 0.4408867,1.803 l 0.5726601,0.8152 C 9.677849,1040.7104 10.246305,1038.4016 8,1038.3622 Z"
         id="path4273"
         inkscape:connector-curvature="0"
         sodipodi:nodetypes="cccc" />
      <circle
         style="opacity:1;fill:#00ff00;fill-opacity:1;stroke:#000000;stroke-width:0;stroke-linecap:butt;stroke-linejoin:round;stroke-miterlimit:4;stroke-dasharray:none;stroke-dashoffset:0;stroke-opacity:1"
         id="circle4317"
         cx="8"
         cy="1044.3622"
         r="2" />
    </g>
  </g>
</svg>
